<svg xmlns="http://www.w3.org/2000/svg" width="800" height="450" viewBox="0 0 800 450" role="img"><title>Скамейка заряжает в тени</title><desc>Посетитель подключает телефон к неработающей зарядке под густым деревом.</desc><defs><linearGradient id="sky" x2=".6" y2="1"><stop stop-color="#243756"/><stop offset=".68" stop-color="#7895b7"/><stop offset="1" stop-color="#f3bc94"/></linearGradient></defs><style>.water{animation:drift 5s ease-in-out infinite}.pulse{animation:breathe 3s ease-in-out infinite}.move{animation:nudge 4s ease-in-out infinite;transform-box:fill-box;transform-origin:center}.snow{animation:fall 5s linear infinite}@keyframes drift{50%{transform:translate(7px,2px);opacity:.72}}@keyframes breathe{50%{opacity:.55}}@keyframes nudge{50%{transform:translate(4px,-3px)}}@keyframes fall{50%{transform:translate(-5px,11px)}}@media(prefers-reduced-motion:reduce){*{animation:none!important}}</style><rect width="800" height="450" fill="url(#sky)"/><path d="M0 208 130 142 244 217 374 159 570 205 702 154 800 198V355H0Z" fill="#526d87" opacity=".45"/><path d="M0 333Q320 289 800 334V450H0Z" fill="#345574" stroke="#172e4e" stroke-width="0" stroke-linecap="round" stroke-linejoin="round" class=""/><g transform="translate(385 142) scale(1.55)"><path d="M0 10V145" fill="none" stroke="#785640" stroke-width="17" stroke-linecap="round" stroke-linejoin="round" class=""/><circle cy="-8" r="54" fill="#458b79" stroke="#172e4e" stroke-width="4"/><circle cx="-35" cy="25" r="43" fill="#6cb787" stroke="#172e4e" stroke-width="4"/><circle cx="34" cy="16" r="45" fill="#83c794" stroke="#172e4e" stroke-width="4"/></g><rect x="251" y="304" width="200" height="35" rx="4" fill="#d59d69" stroke="#172e4e" stroke-width="4"/><rect x="251" y="266" width="200" height="26" rx="4" fill="#d59d69" stroke="#172e4e" stroke-width="4"/><path d="M271 339V380M431 339V380" fill="none" stroke="#172e4e" stroke-width="10" stroke-linecap="round" stroke-linejoin="round" class=""/><rect x="288" y="252" width="130" height="45" rx="8" fill="#467a8e" stroke="#172e4e" stroke-width="4"/><path d="M293 264H413M325 255V293M367 255V293" fill="none" stroke="#89c5cc" stroke-width="3" stroke-linecap="round" stroke-linejoin="round" class=""/><g transform="translate(552 274) scale(0.83)"><g class="move"><ellipse cx="0" cy="115" rx="40" ry="9" fill="#172e4e" opacity=".22"/><path d="M-13 63-19 104M13 63 23 104" fill="none" stroke="#172e4e" stroke-width="16" stroke-linecap="round" stroke-linejoin="round" class=""/><path d="M-29 61V23Q-24-7 0-8Q26-6 29 22V61Z" fill="#f87964" stroke="#172e4e" stroke-width="4" stroke-linecap="round" stroke-linejoin="round" class=""/><path d="M-20 28-53 6M20 28 53-7" fill="none" stroke="#f87964" stroke-width="16" stroke-linecap="round" stroke-linejoin="round" class=""/><circle cy="-44" r="23" fill="#edb68e" stroke="#172e4e" stroke-width="4"/><path d="M-25-42Q-32-70 0-70Q32-69 26-32L18-45Q0-51-19-43Z" fill="#31405d" stroke="#172e4e" stroke-width="3" stroke-linecap="round" stroke-linejoin="round" class=""/><circle cx="-8" cy="-43" r="2.5" fill="#172e4e"/><circle cx="8" cy="-43" r="2.5" fill="#172e4e"/><path d="M-5-31Q0-28 5-31" fill="none" stroke="#172e4e" stroke-width="2" stroke-linecap="round" stroke-linejoin="round" class=""/></g></g><rect x="473" y="256" width="38" height="63" rx="8" fill="#345578" stroke="#172e4e" stroke-width="4"/><path d="M473 311Q423 347 406 324" fill="none" stroke="#fff0d0" stroke-width="4" stroke-linecap="round" stroke-linejoin="round" class=""/><path d="M270 368Q380 332 492 376" fill="none" stroke="#253f51" stroke-width="11" stroke-linecap="round" stroke-linejoin="round" class=""/><path d="M4 4H796V446H4Z" fill="none" stroke="#fff5dc" stroke-width="8" opacity=".15"/></svg>