<?xml version="1.0" encoding="UTF-8"?>
<svg xmlns="http://www.w3.org/2000/svg" width="1920" height="1080" viewBox="0 0 1920 1080" role="img" aria-label="Засуха и восстановление посевов"><title>Засуха и восстановление посевов</title><defs><linearGradient id="sky" x2="0.17" y2="1"><stop stop-color="#edc48d"/><stop offset="1" stop-color="#ee9a52"/></linearGradient><linearGradient id="office" x2=".8" y2="1"><stop stop-color="#6d96ac"/><stop offset="1" stop-color="#182d49"/></linearGradient><linearGradient id="clinical" x2="0.8" y2="1"><stop stop-color="#e7f7f7"/><stop offset="1" stop-color="#7396a6"/></linearGradient><linearGradient id="sunset" x2=".1" y2="1"><stop stop-color="#f9deb1"/><stop offset=".55" stop-color="#f2b374"/><stop offset="1" stop-color="#8d6d52"/></linearGradient><linearGradient id="bridgeSky" x2=".35" y2="1"><stop stop-color="#b7ddeb"/><stop offset="1" stop-color="#668c9c"/></linearGradient><linearGradient id="fireSky" x2=".2" y2="1"><stop stop-color="#edc6a0"/><stop offset=".6" stop-color="#8a7673"/><stop offset="1" stop-color="#3d444b"/></linearGradient><linearGradient id="industrialSky" x2=".4" y2="1"><stop stop-color="#d5e8e9"/><stop offset="1" stop-color="#8aaabb"/></linearGradient><linearGradient id="workshop" x2=".1" y2="1"><stop stop-color="#e1ece7"/><stop offset="1" stop-color="#9cbbbf"/></linearGradient><linearGradient id="villageSky" x2=".2" y2="1"><stop stop-color="#a8cfe1"/><stop offset="1" stop-color="#f5d8aa"/></linearGradient><linearGradient id="mountainSky" x2=".15" y2="1"><stop stop-color="#9ec9dc"/><stop offset="1" stop-color="#f2deb5"/></linearGradient><linearGradient id="warehouse" x2=".7" y2="1"><stop stop-color="#d9e8e7"/><stop offset="1" stop-color="#92acb5"/></linearGradient><filter id="personShadow" x="-30%" y="-30%" width="160%" height="180%"><feDropShadow dx="5" dy="9" stdDeviation="6" flood-color="#142d32" flood-opacity=".4"/></filter><pattern id="paper" width="130" height="130" patternUnits="userSpaceOnUse"><path d="M0 0H130V130H0Z" fill="none" stroke="#ffffff" stroke-opacity=".025" stroke-width="5"/></pattern><radialGradient id="softLight"><stop stop-color="#ffffff" stop-opacity=".42"/><stop offset="1" stop-color="#ffffff" stop-opacity="0"/></radialGradient></defs><rect width="1920" height="1080" fill="url(#sky)"/><rect x="0" y="0" width="1920" height="1080" rx="0" fill="url(#sunset)" /><circle cx="1460" cy="180" r="125" fill="#fff0aa" opacity=".85"/><path d="M0 390Q370 298 765 371T1500 335T1920 374V1080H0Z" fill="#b99d69" stroke="none" stroke-width="0" /><path d="M0 510Q510 470 900 512T1920 462V1080H0Z" fill="#bfa16a" stroke="none" stroke-width="0" /><path d="M0 710Q620 599 1068 700T1920 628V1080H0Z" fill="#9a7849" stroke="none" stroke-width="0" /><path d="M-240 1080L700 690L704 690L-223 1080Z" fill="#dbbb74" stroke="none" stroke-width="0" /><path d="M-131 1080L714 690L718 690L-114 1080Z" fill="#81653c" stroke="none" stroke-width="0" /><path d="M-22 1080L728 690L732 690L-5 1080Z" fill="#81653c" stroke="none" stroke-width="0" /><path d="M87 1080L742 690L746 690L104 1080Z" fill="#dbbb74" stroke="none" stroke-width="0" /><path d="M196 1080L756 690L760 690L213 1080Z" fill="#81653c" stroke="none" stroke-width="0" /><path d="M305 1080L770 690L774 690L322 1080Z" fill="#81653c" stroke="none" stroke-width="0" /><path d="M414 1080L784 690L788 690L431 1080Z" fill="#dbbb74" stroke="none" stroke-width="0" /><path d="M523 1080L798 690L802 690L540 1080Z" fill="#81653c" stroke="none" stroke-width="0" /><path d="M632 1080L812 690L816 690L649 1080Z" fill="#81653c" stroke="none" stroke-width="0" /><path d="M741 1080L826 690L830 690L758 1080Z" fill="#dbbb74" stroke="none" stroke-width="0" /><path d="M850 1080L840 690L844 690L867 1080Z" fill="#81653c" stroke="none" stroke-width="0" /><path d="M959 1080L854 690L858 690L976 1080Z" fill="#81653c" stroke="none" stroke-width="0" /><path d="M1068 1080L868 690L872 690L1085 1080Z" fill="#dbbb74" stroke="none" stroke-width="0" /><path d="M1177 1080L882 690L886 690L1194 1080Z" fill="#81653c" stroke="none" stroke-width="0" /><path d="M1286 1080L896 690L900 690L1303 1080Z" fill="#81653c" stroke="none" stroke-width="0" /><path d="M1395 1080L910 690L914 690L1412 1080Z" fill="#dbbb74" stroke="none" stroke-width="0" /><path d="M1504 1080L924 690L928 690L1521 1080Z" fill="#81653c" stroke="none" stroke-width="0" /><path d="M1613 1080L938 690L942 690L1630 1080Z" fill="#81653c" stroke="none" stroke-width="0" /><path d="M1722 1080L952 690L956 690L1739 1080Z" fill="#dbbb74" stroke="none" stroke-width="0" /><path d="M1831 1080L966 690L970 690L1848 1080Z" fill="#81653c" stroke="none" stroke-width="0" /><path d="M1940 1080L980 690L984 690L1957 1080Z" fill="#81653c" stroke="none" stroke-width="0" /><path d="M-100 897C345 782 610 774 1057 851S1718 867 2070 715" fill="none" stroke="#436e7a" stroke-width="72" /><path d="M-100 897C345 782 610 774 1057 851S1718 867 2070 715" fill="none" stroke="#8fcdd6" stroke-width="42" /><path d="M200 706 L203 661" fill="none" stroke="#c7d2c7" stroke-width="7" /><path d="M418 688 L421 641" fill="none" stroke="#c7d2c7" stroke-width="7" /><path d="M636 670 L639 621" fill="none" stroke="#c7d2c7" stroke-width="7" /><path d="M854 652 L857 601" fill="none" stroke="#c7d2c7" stroke-width="7" /><path d="M1072 634 L1075 581" fill="none" stroke="#c7d2c7" stroke-width="7" /><path d="M1290 616 L1293 561" fill="none" stroke="#c7d2c7" stroke-width="7" /><path d="M1508 598 L1511 541" fill="none" stroke="#c7d2c7" stroke-width="7" /><path d="M1726 580 L1729 521" fill="none" stroke="#c7d2c7" stroke-width="7" /><path d="M1944 562 L1947 501" fill="none" stroke="#c7d2c7" stroke-width="7" /><g transform="translate(1330 810) scale(2)" filter="url(#personShadow)"><path d="M-31 0L-22 -90Q-19 -108 0 -113Q22 -109 26 -87L35 0Z" fill="#b7c1a7" stroke="none" stroke-width="0" /><path d="M-18 -104L0 -60 18 -104Z" fill="#f4f1e8" stroke="none" stroke-width="0" /><path d="M-4 -106L0 -42 9 -103Z" fill="#b84648" stroke="none" stroke-width="0" /><path d="M-20 -88 L-45 -17" fill="none" stroke="#b7c1a7" stroke-width="17" stroke-linecap="round"/><path d="M20 -88 L48 -22" fill="none" stroke="#b7c1a7" stroke-width="17" stroke-linecap="round"/><path d="M-20 -2 L-20 48" fill="none" stroke="#23313b" stroke-width="17" stroke-linecap="round"/><path d="M19 -2 L17 48" fill="none" stroke="#23313b" stroke-width="17" stroke-linecap="round"/><circle cx="0" cy="-144" r="29" fill="#d6a88b" /><path d="M-29 -155Q-28 -194 6 -193Q28 -186 31 -152Q14 -164 0 -178Q-13 -160 -29 -155Z" fill="#3f3230" stroke="none" stroke-width="0" /><path d="M-37 -154Q-31 -191 0 -194Q30 -191 38 -154Z" fill="#ffe78e" stroke="none" stroke-width="0" /><rect x="-39" y="-159" width="78" height="9" rx="4" fill="#edcb53" /><path d="M-9 -133 L9 -134" fill="none" stroke="#9b645c" stroke-width="2" /></g><g transform="translate(1620 836) scale(1.8)" filter="url(#personShadow)"><path d="M-31 0L-22 -90Q-19 -108 0 -113Q22 -109 26 -87L35 0Z" fill="#e1d3ad" stroke="none" stroke-width="0" /><path d="M-18 -104L0 -60 18 -104Z" fill="#f4f1e8" stroke="none" stroke-width="0" /><path d="M-4 -106L0 -42 9 -103Z" fill="#b84648" stroke="none" stroke-width="0" /><path d="M-20 -88 L-45 -17" fill="none" stroke="#e1d3ad" stroke-width="17" stroke-linecap="round"/><path d="M20 -88 L48 -22" fill="none" stroke="#e1d3ad" stroke-width="17" stroke-linecap="round"/><path d="M-20 -2 L-20 48" fill="none" stroke="#23313b" stroke-width="17" stroke-linecap="round"/><path d="M19 -2 L17 48" fill="none" stroke="#23313b" stroke-width="17" stroke-linecap="round"/><circle cx="0" cy="-144" r="29" fill="#d6a88b" /><path d="M-29 -155Q-28 -194 6 -193Q28 -186 31 -152Q14 -164 0 -178Q-13 -160 -29 -155Z" fill="#3f3230" stroke="none" stroke-width="0" /><path d="M-37 -154Q-31 -191 0 -194Q30 -191 38 -154Z" fill="#ffe78e" stroke="none" stroke-width="0" /><rect x="-39" y="-159" width="78" height="9" rx="4" fill="#edcb53" /><path d="M-9 -133 L9 -134" fill="none" stroke="#9b645c" stroke-width="2" /></g><g transform="translate(1518 727) scale(0.7)" filter="url(#personShadow)"><path d="M0 0L150 -18 160 75 12 89Z" fill="#f2ede2" stroke="#a4aabb" stroke-width="3" /><path d="M28 18 L135 9" fill="none" stroke="#9aaab6" stroke-width="3" /><path d="M28 30 L135 22" fill="none" stroke="#9aaab6" stroke-width="3" /><path d="M28 42 L135 35" fill="none" stroke="#9aaab6" stroke-width="3" /><path d="M28 54 L135 48" fill="none" stroke="#9aaab6" stroke-width="3" /><path d="M28 66 L135 61" fill="none" stroke="#9aaab6" stroke-width="3" /><path d="M107 0L145 -5 147 25 108 29Z" fill="#f1a85d" stroke="none" stroke-width="0" /></g><rect x="0" y="0" width="1920" height="1080" rx="0" fill="url(#paper)" /><circle cx="1460" cy="170" r="720" fill="url(#softLight)" /><path d="M16 18H1904V1062H16Z" fill="none" stroke="#eff9fb" stroke-width="8" opacity=".43"/></svg>