<svg xmlns="http://www.w3.org/2000/svg" width="256" height="256" viewBox="0 0 256 256">
<title>Сквозная процедура</title>
<rect x="16" y="16" width="224" height="224" rx="25" fill="#EDF1FF"/>
        <path d="M36 190V96l92-51 92 51v94Z" fill="#FFFFFF"/>
        <path d="M30 198h196" stroke="#F3A8CF" stroke-width="11"/>
        <circle cx="199" cy="55" r="26" fill="#F3A8CF"/>
<circle cx="80" cy="51" r="5" fill="#F3A8CF" opacity=".85"/><path d="M179 51h30" stroke="#172447" stroke-width="3" opacity=".34"/><path d="M80 166h57" stroke="#F3A8CF" stroke-width="4" opacity=".45"/>
<g transform="translate(26.88 26.88) scale(0.790) rotate(1 128 128)"
 fill="none" stroke="#172447" stroke-width="10" stroke-linecap="round" stroke-linejoin="round"><path d="M50 199h156M67 199v-83l61-43 61 43v83"/><path d="M91 199v-53h74v53M74 105h108"/></g>
<path d="M185 202h34M202 185v34" stroke="#F3A8CF" stroke-width="6" stroke-linecap="round"/>
<path d="M29 229h38" stroke="#F3A8CF" stroke-width="7" stroke-linecap="round"/>
<path d="M75 229h60" stroke="#172447" stroke-width="3" opacity=".22" stroke-linecap="round"/>
</svg>