<svg xmlns="http://www.w3.org/2000/svg" width="512" height="512" viewBox="0 0 256 256"><title>Фабрика норм</title><defs><linearGradient id="sky" x2=".7" y2="1"><stop stop-color="#f3f8ff"/><stop offset=".58" stop-color="#bfdcff"/><stop offset="1" stop-color="#3f7bd5"/></linearGradient><linearGradient id="gold" x2=".4" y2="1"><stop stop-color="#fff6d2"/><stop offset=".42" stop-color="#ffaedb"/><stop offset="1" stop-color="#e8b367"/></linearGradient><linearGradient id="rim" x2="1" y2="1"><stop stop-color="#fff9df"/><stop offset=".26" stop-color="#ffaedb"/><stop offset=".66" stop-color="#bfdcff"/><stop offset="1" stop-color="#3f7bd5"/></linearGradient><clipPath id="clip"><path d="M128 7 246 61l-19 156-99 32-99-32L10 61Z"/></clipPath></defs><path d="M128 7 246 61l-19 156-99 32-99-32L10 61Z" fill="url(#sky)" stroke="url(#rim)" stroke-width="9"/><g clip-path="url(#clip)"><path d="M12 164h232v73H12Z" fill="#ded5ed55" stroke="none" stroke-width="2.5" stroke-linecap="round" stroke-linejoin="round"/><circle cx="25" cy="26" r="3" fill="#ffffffb0" stroke="none" stroke-width="2"/><circle cx="25" cy="43" r="3" fill="#ffffffb0" stroke="none" stroke-width="2"/><circle cx="42" cy="26" r="3" fill="#ffffffb0" stroke="none" stroke-width="2"/><circle cx="42" cy="43" r="3" fill="#ffffffb0" stroke="none" stroke-width="2"/><circle cx="59" cy="26" r="3" fill="#ffffffb0" stroke="none" stroke-width="2"/><circle cx="59" cy="43" r="3" fill="#ffffffb0" stroke="none" stroke-width="2"/><circle cx="76" cy="26" r="3" fill="#ffffffb0" stroke="none" stroke-width="2"/><circle cx="76" cy="43" r="3" fill="#ffffffb0" stroke="none" stroke-width="2"/><circle cx="93" cy="26" r="3" fill="#ffffffb0" stroke="none" stroke-width="2"/><circle cx="93" cy="43" r="3" fill="#ffffffb0" stroke="none" stroke-width="2"/><circle cx="110" cy="26" r="3" fill="#ffffffb0" stroke="none" stroke-width="2"/><circle cx="110" cy="43" r="3" fill="#ffffffb0" stroke="none" stroke-width="2"/><circle cx="127" cy="26" r="3" fill="#ffffffb0" stroke="none" stroke-width="2"/><circle cx="127" cy="43" r="3" fill="#ffffffb0" stroke="none" stroke-width="2"/><circle cx="144" cy="26" r="3" fill="#ffffffb0" stroke="none" stroke-width="2"/><circle cx="144" cy="43" r="3" fill="#ffffffb0" stroke="none" stroke-width="2"/><circle cx="161" cy="26" r="3" fill="#ffffffb0" stroke="none" stroke-width="2"/><circle cx="161" cy="43" r="3" fill="#ffffffb0" stroke="none" stroke-width="2"/><circle cx="178" cy="26" r="3" fill="#ffffffb0" stroke="none" stroke-width="2"/><circle cx="178" cy="43" r="3" fill="#ffffffb0" stroke="none" stroke-width="2"/><circle cx="195" cy="26" r="3" fill="#ffffffb0" stroke="none" stroke-width="2"/><circle cx="195" cy="43" r="3" fill="#ffffffb0" stroke="none" stroke-width="2"/><circle cx="212" cy="26" r="3" fill="#ffffffb0" stroke="none" stroke-width="2"/><circle cx="212" cy="43" r="3" fill="#ffffffb0" stroke="none" stroke-width="2"/><circle cx="229" cy="26" r="3" fill="#ffffffb0" stroke="none" stroke-width="2"/><circle cx="229" cy="43" r="3" fill="#ffffffb0" stroke="none" stroke-width="2"/><path d="M20 222h218" fill="none" stroke="#e5f5ff55" stroke-width="5" stroke-linecap="round" stroke-linejoin="round"/><ellipse cx="126" cy="214" rx="90" ry="12" fill="#3f7bd5" opacity=".15"/><g transform="translate(55 39) rotate(11 77.5 77.5) scale(1.55)"><path d="M8 42 35 27v15l26-15v15h32v50H8Z" fill="#bcd5f4" stroke="#34476c" stroke-width="2.5" stroke-linecap="round" stroke-linejoin="round"/><rect x="72" y="6" width="15" height="36" rx="1" fill="#f7ceb8" stroke="#34476c" stroke-width="2"/><rect x="18" y="56" width="13" height="16" rx="2" fill="#fff3ce" stroke="#34476c" stroke-width="2"/><rect x="42" y="56" width="13" height="16" rx="2" fill="#fff3ce" stroke="#34476c" stroke-width="2"/><rect x="66" y="56" width="13" height="16" rx="2" fill="#fff3ce" stroke="#34476c" stroke-width="2"/><path d="M76 7q-14-9 0-13" fill="none" stroke="#c6e2f2" stroke-width="5" stroke-linecap="round" stroke-linejoin="round"/></g><g transform="translate(10 30) rotate(10 34.5 34.5) scale(0.69)"><path d="M16 7h50l18 18v69H16Z" fill="#fff9e9" stroke="#34476c" stroke-width="2.5" stroke-linecap="round" stroke-linejoin="round"/><path d="M66 7v18h18" fill="#c6ddf8" stroke="#34476c" stroke-width="2.5" stroke-linecap="round" stroke-linejoin="round"/><text x="47" y="42" text-anchor="middle" font-family="Arial,sans-serif" font-weight="800" font-size="12" fill="#34476c">ФЗ</text><path d="M27 54h44" fill="none" stroke="#9cb0ce" stroke-width="2" stroke-linecap="round" stroke-linejoin="round"/><path d="M27 63h44" fill="none" stroke="#9cb0ce" stroke-width="2" stroke-linecap="round" stroke-linejoin="round"/><path d="M27 72h44" fill="none" stroke="#9cb0ce" stroke-width="2" stroke-linecap="round" stroke-linejoin="round"/><path d="M27 81h29" fill="none" stroke="#9cb0ce" stroke-width="2" stroke-linecap="round" stroke-linejoin="round"/><circle cx="73" cy="80" r="11" fill="url(#gold)" stroke="#34476c" stroke-width="2"/><polygon points="73.0,75.0 74.3,78.2 77.8,78.5 75.1,80.7 75.9,84.0 73.0,82.2 70.1,84.0 70.9,80.7 68.2,78.5 71.7,78.2" fill="url(#gold)" stroke="#fff5db" stroke-width="1.5"/></g><g transform="translate(23 151) rotate(-4 40.0 40.0) scale(0.8)"><path d="M40 5h20l4 13 12-4 14 14-5 12 12 7v19l-12 4 4 13-14 13-13-6-6 11H35l-5-13-12 3L4 77l5-12L0 56V37l13-5-3-12L25 5l12 8Z" fill="#c2d2ec" stroke="#34476c" stroke-width="2.5" stroke-linecap="round" stroke-linejoin="round"/><circle cx="49" cy="53" r="25" fill="#7d9ccc" stroke="#34476c" stroke-width="2"/><circle cx="49" cy="53" r="14" fill="#fff7dc" stroke="#34476c" stroke-width="2"/></g><polygon points="33.0,87.0 34.0,89.6 36.8,89.8 34.7,91.5 35.4,94.2 33.0,92.8 30.6,94.2 31.3,91.5 29.2,89.8 32.0,89.6" fill="#ffaedb" stroke="#fff5db" stroke-width="1.5"/><polygon points="206.0,120.0 207.3,123.2 210.8,123.5 208.1,125.7 208.9,129.0 206.0,127.2 203.1,129.0 203.9,125.7 201.2,123.5 204.7,123.2" fill="#ffaedb" stroke="#fff5db" stroke-width="1.5"/><polygon points="143.0,20.0 144.0,22.6 146.8,22.8 144.7,24.5 145.4,27.2 143.0,25.8 140.6,27.2 141.3,24.5 139.2,22.8 142.0,22.6" fill="#ffaedb" stroke="#fff5db" stroke-width="1.5"/></g><path d="M128 7 246 61l-19 156-99 32-99-32L10 61Z" fill="none" stroke="#ffffffbb" stroke-width="2"/><path d="M26 21h38M20 28v34" fill="none" stroke="#ffffffb0" stroke-width="3" stroke-linecap="round"/></svg>