<svg xmlns="http://www.w3.org/2000/svg" width="512" height="512" viewBox="0 0 256 256"><title>Бюрократия с человеческим лицом</title><defs><linearGradient id="sky" x2=".7" y2="1"><stop stop-color="#fff6ff"/><stop offset=".58" stop-color="#f5c3e9"/><stop offset="1" stop-color="#be59b3"/></linearGradient><linearGradient id="gold" x2=".4" y2="1"><stop stop-color="#fff6d2"/><stop offset=".42" stop-color="#9de4f2"/><stop offset="1" stop-color="#e8b367"/></linearGradient><linearGradient id="rim" x2="1" y2="1"><stop stop-color="#fff9df"/><stop offset=".26" stop-color="#9de4f2"/><stop offset=".66" stop-color="#f5c3e9"/><stop offset="1" stop-color="#be59b3"/></linearGradient><clipPath id="clip"><path d="M29 9h198l20 28v173l-31 36H40L9 210V37Z"/></clipPath></defs><path d="M29 9h198l20 28v173l-31 36H40L9 210V37Z" fill="url(#sky)" stroke="url(#rim)" stroke-width="9"/><g clip-path="url(#clip)"><path d="M14 170q36-69 72-22 32-67 72-13 26-26 84 24v77H14Z" fill="#c8ebd1" stroke="none" stroke-width="2.5" stroke-linecap="round" stroke-linejoin="round"/><path d="M12 197q61-33 127 2t105-1v38H12Z" fill="#a0d7c5" stroke="none" stroke-width="2.5" stroke-linecap="round" stroke-linejoin="round"/><path d="M23 205q83-20 173 18" fill="none" stroke="#e5fff5" stroke-width="3" stroke-linecap="round" stroke-linejoin="round"/><ellipse cx="126" cy="214" rx="90" ry="12" fill="#be59b3" opacity=".15"/><g transform="translate(29 31) rotate(-6 80.0 80.0) scale(1.6)"><rect x="5" y="48" width="39" height="42" rx="3" fill="#ffc995" stroke="#34476c" stroke-width="2"/><path d="M2 48 25 24l24 24Z" fill="#ee829b" stroke="#34476c" stroke-width="2.5" stroke-linecap="round" stroke-linejoin="round"/><rect x="18" y="67" width="13" height="23" rx="2" fill="#799bd3" stroke="none" stroke-width="2"/><rect x="57" y="19" width="35" height="71" rx="3" fill="#a3d8fa" stroke="#34476c" stroke-width="2"/><rect x="63" y="29" width="8" height="10" rx="1" fill="#fff5bd" stroke="none" stroke-width="2"/><rect x="63" y="49" width="8" height="10" rx="1" fill="#fff5bd" stroke="none" stroke-width="2"/><rect x="63" y="69" width="8" height="10" rx="1" fill="#fff5bd" stroke="none" stroke-width="2"/><rect x="79" y="29" width="8" height="10" rx="1" fill="#fff5bd" stroke="none" stroke-width="2"/><rect x="79" y="49" width="8" height="10" rx="1" fill="#fff5bd" stroke="none" stroke-width="2"/><rect x="79" y="69" width="8" height="10" rx="1" fill="#fff5bd" stroke="none" stroke-width="2"/></g><g transform="translate(161 50) rotate(13 40.5 40.5) scale(0.81)"><path d="M6 16h88v57H48L28 93V73H6Z" fill="#b4ddff" stroke="#34476c" stroke-width="2.5" stroke-linecap="round" stroke-linejoin="round"/><path d="M21 34h55m-55 14h43m-43 14h30" fill="none" stroke="#789dc8" stroke-width="3" stroke-linecap="round" stroke-linejoin="round"/><polygon points="82.0,6.0 84.6,12.4 91.5,12.9 86.2,17.4 87.9,24.1 82.0,20.4 76.1,24.1 77.8,17.4 72.5,12.9 79.4,12.4" fill="url(#gold)" stroke="#fff5db" stroke-width="1.5"/></g><g transform="translate(141 161) rotate(-6 42.5 42.5) scale(0.85)"><path d="M50 91Q-2 56 10 30q15-27 40 0 25-27 40 0 12 26-40 61Z" fill="#fba3c0" stroke="#34476c" stroke-width="2.5" stroke-linecap="round" stroke-linejoin="round"/><path d="M21 30q11-13 21 0" fill="none" stroke="#ffe1e9" stroke-width="4" stroke-linecap="round" stroke-linejoin="round"/><polygon points="77.0,59.0 79.6,65.4 86.5,65.9 81.2,70.4 82.9,77.1 77.0,73.4 71.1,77.1 72.8,70.4 67.5,65.9 74.4,65.4" fill="url(#gold)" stroke="#fff5db" stroke-width="1.5"/></g><polygon points="37.0,80.0 38.0,82.6 40.8,82.8 38.7,84.5 39.4,87.2 37.0,85.8 34.6,87.2 35.3,84.5 33.2,82.8 36.0,82.6" fill="#9de4f2" stroke="#fff5db" stroke-width="1.5"/><polygon points="218.0,134.0 219.3,137.2 222.8,137.5 220.1,139.7 220.9,143.0 218.0,141.2 215.1,143.0 215.9,139.7 213.2,137.5 216.7,137.2" fill="#9de4f2" stroke="#fff5db" stroke-width="1.5"/><polygon points="140.0,20.0 141.0,22.6 143.8,22.8 141.7,24.5 142.4,27.2 140.0,25.8 137.6,27.2 138.3,24.5 136.2,22.8 139.0,22.6" fill="#9de4f2" stroke="#fff5db" stroke-width="1.5"/></g><path d="M29 9h198l20 28v173l-31 36H40L9 210V37Z" fill="none" stroke="#ffffffbb" stroke-width="2"/><path d="M26 21h38M20 28v34" fill="none" stroke="#ffffffb0" stroke-width="3" stroke-linecap="round"/></svg>