<svg xmlns="http://www.w3.org/2000/svg" width="256" height="256" viewBox="0 0 256 256">
<title>Паспорт будущего</title>
<defs>
 <filter id="gold13" x="-45%" y="-45%" width="190%" height="190%"><feGaussianBlur stdDeviation="6" result="b"/><feColorMatrix in="b" type="matrix" values="1 0 0 0 .77  0 1 0 0 .48  0 0 1 0 .10  0 0 0 .65 0"/></filter>
 <linearGradient id="steel13" x1="0" y1="0" x2="1" y2="1"><stop stop-color="#aeb4b8"/><stop offset=".18" stop-color="#343b40"/><stop offset=".56" stop-color="#777f84"/><stop offset="1" stop-color="#20262a"/></linearGradient>
 <radialGradient id="v13"><stop stop-color="#171b1e"/><stop offset=".68" stop-color="#090b0d"/><stop offset="1" stop-color="#040506"/></radialGradient>
</defs>
<rect x="8" y="8" width="240" height="240" rx="5" fill="none" stroke="#d0a64f" stroke-width="6" filter="url(#gold13)" opacity=".88"/>
<rect x="7" y="7" width="242" height="242" rx="5" fill="#07090a" stroke="#d0a64f" stroke-width="5"/>
<rect x="13" y="13" width="230" height="230" rx="3" fill="url(#v13)" stroke="url(#steel13)" stroke-width="4"/>
<rect x="18" y="18" width="220" height="220" rx="2" fill="none" stroke="#727a80" stroke-width="2" opacity=".75"/>
<path d="M19 19h70L19 89Z" fill="#ffffff" opacity=".06"/>
<circle cx="184" cy="72" r="64" fill="#8c1f27" opacity=".7"/><circle cx="69" cy="190" r="43" fill="#6a151b" opacity=".7"/>
<circle cx="218" cy="41" r="2" fill="#d8dde0" opacity=".24"/><circle cx="75" cy="72" r="3" fill="#d8dde0" opacity=".24"/><circle cx="122" cy="103" r="1" fill="#d8dde0" opacity=".24"/><circle cx="169" cy="134" r="2" fill="#d8dde0" opacity=".24"/><circle cx="216" cy="165" r="3" fill="#d8dde0" opacity=".24"/>
<g transform="translate(12.16 12.16) scale(0.905) rotate(3 128 128)" fill="none" stroke="#e7e8e8" stroke-width="9" stroke-linecap="round" stroke-linejoin="round" opacity=".98"><path d="M77 52h74l29 30v122H77Z"/><path d="M151 52v34h29M98 111h61M98 135h61M98 159h43"/></g>
<path d="M26 219h162" stroke="#a4252f" stroke-width="5" opacity=".8"/>
<path d="M26 229h90" stroke="#e7e8e8" stroke-width="2" opacity=".28"/>
</svg>