<svg xmlns="http://www.w3.org/2000/svg" width="512" height="512" viewBox="0 0 256 256"><title>Партийный архив</title><defs><linearGradient id="sky" x2=".7" y2="1"><stop stop-color="#fff6ff"/><stop offset=".58" stop-color="#f5c3e9"/><stop offset="1" stop-color="#be59b3"/></linearGradient><linearGradient id="gold" x2=".4" y2="1"><stop stop-color="#fff6d2"/><stop offset=".42" stop-color="#9de4f2"/><stop offset="1" stop-color="#e8b367"/></linearGradient><linearGradient id="rim" x2="1" y2="1"><stop stop-color="#fff9df"/><stop offset=".26" stop-color="#9de4f2"/><stop offset=".66" stop-color="#f5c3e9"/><stop offset="1" stop-color="#be59b3"/></linearGradient><clipPath id="clip"><path d="M128 7 244 42v145l-116 62L12 187V42Z"/></clipPath></defs><path d="M128 7 244 42v145l-116 62L12 187V42Z" fill="url(#sky)" stroke="url(#rim)" stroke-width="9"/><g clip-path="url(#clip)"><path d="M12 175h232v61H12Z" fill="#ecd9c655" stroke="none" stroke-width="2.5" stroke-linecap="round" stroke-linejoin="round"/><path d="M12 176h232M30 208h56m78 0h62" fill="none" stroke="#e8d3bb80" stroke-width="3" stroke-linecap="round" stroke-linejoin="round"/><ellipse cx="126" cy="214" rx="90" ry="12" fill="#be59b3" opacity=".15"/><g transform="translate(68 44) rotate(8 73.5 73.5) scale(1.47)"><rect x="7" y="31" width="86" height="55" rx="6" fill="#ddb89b" stroke="#34476c" stroke-width="2"/><path d="M33 31V18h35v13" fill="none" stroke="#c0a68c" stroke-width="6" stroke-linecap="round" stroke-linejoin="round"/><rect x="21" y="31" width="8" height="55" rx="2" fill="#ffe4bf" stroke="none" stroke-width="2"/><rect x="72" y="31" width="8" height="55" rx="2" fill="#ffe4bf" stroke="none" stroke-width="2"/><rect x="42" y="40" width="18" height="11" rx="2" fill="url(#gold)" stroke="#34476c" stroke-width="2"/><path d="m39 66 15 4 6-13-15-4Z" fill="#c0eaf0" stroke="#34476c" stroke-width="2.5" stroke-linecap="round" stroke-linejoin="round"/></g><g transform="translate(15 42) rotate(4 41.5 41.5) scale(0.83)"><path d="M20 7v87" fill="none" stroke="#adc0de" stroke-width="5" stroke-linecap="round" stroke-linejoin="round"/><path d="M23 11h64v41H23Z" fill="#fff" stroke="#34476c" stroke-width="2.5" stroke-linecap="round" stroke-linejoin="round"/><rect x="23" y="25" width="64" height="13" rx="0" fill="#8fafea" stroke="none" stroke-width="2"/><rect x="23" y="38" width="64" height="14" rx="0" fill="#f6b1bb" stroke="none" stroke-width="2"/><path d="M10 95h30" fill="none" stroke="#9caec8" stroke-width="4" stroke-linecap="round" stroke-linejoin="round"/></g><g transform="translate(15 158) rotate(0 38.5 38.5) scale(0.77)"><path d="M5 24h32l11 12h46v50H5Z" fill="#ebbb6d" stroke="#34476c" stroke-width="2.5" stroke-linecap="round" stroke-linejoin="round"/><path d="M4 47h93L83 89H13Z" fill="url(#gold)" stroke="#34476c" stroke-width="2.5" stroke-linecap="round" stroke-linejoin="round"/><path d="M21 30h23" fill="none" stroke="#fff3c2" stroke-width="3" stroke-linecap="round" stroke-linejoin="round"/></g><polygon points="39.0,73.0 40.0,75.6 42.8,75.8 40.7,77.5 41.4,80.2 39.0,78.8 36.6,80.2 37.3,77.5 35.2,75.8 38.0,75.6" fill="#9de4f2" stroke="#fff5db" stroke-width="1.5"/><polygon points="212.0,118.0 213.3,121.2 216.8,121.5 214.1,123.7 214.9,127.0 212.0,125.2 209.1,127.0 209.9,123.7 207.2,121.5 210.7,121.2" fill="#9de4f2" stroke="#fff5db" stroke-width="1.5"/><polygon points="131.0,20.0 132.0,22.6 134.8,22.8 132.7,24.5 133.4,27.2 131.0,25.8 128.6,27.2 129.3,24.5 127.2,22.8 130.0,22.6" fill="#9de4f2" stroke="#fff5db" stroke-width="1.5"/></g><path d="M128 7 244 42v145l-116 62L12 187V42Z" fill="none" stroke="#ffffffbb" stroke-width="2"/><path d="M26 21h38M20 28v34" fill="none" stroke="#ffffffb0" stroke-width="3" stroke-linecap="round"/></svg>