<svg xmlns="http://www.w3.org/2000/svg" width="512" height="512" viewBox="0 0 256 256"><title>От черновика до публикации</title><defs><linearGradient id="sky" x2=".7" y2="1"><stop stop-color="#f3f8ff"/><stop offset=".58" stop-color="#bfdcff"/><stop offset="1" stop-color="#3f7bd5"/></linearGradient><linearGradient id="gold" x2=".4" y2="1"><stop stop-color="#fff6d2"/><stop offset=".42" stop-color="#ffaedb"/><stop offset="1" stop-color="#e8b367"/></linearGradient><linearGradient id="rim" x2="1" y2="1"><stop stop-color="#fff9df"/><stop offset=".26" stop-color="#ffaedb"/><stop offset=".66" stop-color="#bfdcff"/><stop offset="1" stop-color="#3f7bd5"/></linearGradient><clipPath id="clip"><path d="M45 8h166l37 37v166l-37 37H45L8 211V45Z"/></clipPath></defs><path d="M45 8h166l37 37v166l-37 37H45L8 211V45Z" fill="url(#sky)" stroke="url(#rim)" stroke-width="9"/><g clip-path="url(#clip)"><path d="M128 118 128.0 -62.0" fill="none" stroke="#ffffff66" stroke-width="12" stroke-linecap="round" stroke-linejoin="round"/><path d="M128 118 196.9 -48.3" fill="none" stroke="#ffffff66" stroke-width="12" stroke-linecap="round" stroke-linejoin="round"/><path d="M128 118 255.3 -9.3" fill="none" stroke="#ffffff66" stroke-width="12" stroke-linecap="round" stroke-linejoin="round"/><path d="M128 118 294.3 49.1" fill="none" stroke="#ffffff66" stroke-width="12" stroke-linecap="round" stroke-linejoin="round"/><path d="M128 118 308.0 118.0" fill="none" stroke="#ffffff66" stroke-width="12" stroke-linecap="round" stroke-linejoin="round"/><path d="M128 118 294.3 186.9" fill="none" stroke="#ffffff66" stroke-width="12" stroke-linecap="round" stroke-linejoin="round"/><path d="M128 118 255.3 245.3" fill="none" stroke="#ffffff66" stroke-width="12" stroke-linecap="round" stroke-linejoin="round"/><path d="M128 118 196.9 284.3" fill="none" stroke="#ffffff66" stroke-width="12" stroke-linecap="round" stroke-linejoin="round"/><path d="M128 118 128.0 298.0" fill="none" stroke="#ffffff66" stroke-width="12" stroke-linecap="round" stroke-linejoin="round"/><path d="M128 118 59.1 284.3" fill="none" stroke="#ffffff66" stroke-width="12" stroke-linecap="round" stroke-linejoin="round"/><path d="M128 118 0.7 245.3" fill="none" stroke="#ffffff66" stroke-width="12" stroke-linecap="round" stroke-linejoin="round"/><path d="M128 118 -38.3 186.9" fill="none" stroke="#ffffff66" stroke-width="12" stroke-linecap="round" stroke-linejoin="round"/><path d="M128 118 -52.0 118.0" fill="none" stroke="#ffffff66" stroke-width="12" stroke-linecap="round" stroke-linejoin="round"/><path d="M128 118 -38.3 49.1" fill="none" stroke="#ffffff66" stroke-width="12" stroke-linecap="round" stroke-linejoin="round"/><path d="M128 118 0.7 -9.3" fill="none" stroke="#ffffff66" stroke-width="12" stroke-linecap="round" stroke-linejoin="round"/><path d="M128 118 59.1 -48.3" fill="none" stroke="#ffffff66" stroke-width="12" stroke-linecap="round" stroke-linejoin="round"/><circle cx="128" cy="126" r="88" fill="#ffffff30" stroke="none" stroke-width="2"/><ellipse cx="126" cy="214" rx="90" ry="12" fill="#3f7bd5" opacity=".15"/><g transform="translate(57 39) rotate(-7 74.5 74.5) scale(1.49)"><rect x="21" y="2" width="59" height="35" rx="2" fill="#fff4dc" stroke="#34476c" stroke-width="2"/><rect x="5" y="31" width="90" height="43" rx="6" fill="#a2c8e9" stroke="#34476c" stroke-width="2"/><rect x="22" y="62" width="58" height="33" rx="2" fill="#fff9eb" stroke="#34476c" stroke-width="2"/><path d="M32 75h37m-37 9h29" fill="none" stroke="#b0c3da" stroke-width="2" stroke-linecap="round" stroke-linejoin="round"/><circle cx="80" cy="43" r="4" fill="#c6f8d4" stroke="none" stroke-width="2"/></g><g transform="translate(14 150) rotate(-14 39.5 39.5) scale(0.79)"><path d="M16 7h50l18 18v69H16Z" fill="#fff9e9" stroke="#34476c" stroke-width="2.5" stroke-linecap="round" stroke-linejoin="round"/><path d="M66 7v18h18" fill="#c6ddf8" stroke="#34476c" stroke-width="2.5" stroke-linecap="round" stroke-linejoin="round"/><text x="47" y="42" text-anchor="middle" font-family="Arial,sans-serif" font-weight="800" font-size="12" fill="#34476c">НПА</text><path d="M27 54h44" fill="none" stroke="#9cb0ce" stroke-width="2" stroke-linecap="round" stroke-linejoin="round"/><path d="M27 63h44" fill="none" stroke="#9cb0ce" stroke-width="2" stroke-linecap="round" stroke-linejoin="round"/><path d="M27 72h44" fill="none" stroke="#9cb0ce" stroke-width="2" stroke-linecap="round" stroke-linejoin="round"/><path d="M27 81h29" fill="none" stroke="#9cb0ce" stroke-width="2" stroke-linecap="round" stroke-linejoin="round"/><circle cx="73" cy="80" r="11" fill="url(#gold)" stroke="#34476c" stroke-width="2"/><polygon points="73.0,75.0 74.3,78.2 77.8,78.5 75.1,80.7 75.9,84.0 73.0,82.2 70.1,84.0 70.9,80.7 68.2,78.5 71.7,78.2" fill="url(#gold)" stroke="#fff5db" stroke-width="1.5"/></g><g transform="translate(165 137) rotate(12 38.0 38.0) scale(0.76)"><circle cx="50" cy="50" r="41" fill="#67c9a5" stroke="#34476c" stroke-width="2"/><circle cx="50" cy="50" r="35" fill="none" stroke="#ffffff90" stroke-width="2"/><path d="m25 52 18 18 32-40" fill="none" stroke="#fff" stroke-width="9" stroke-linecap="round" stroke-linejoin="round"/></g><polygon points="40.0,93.0 41.0,95.6 43.8,95.8 41.7,97.5 42.4,100.2 40.0,98.8 37.6,100.2 38.3,97.5 36.2,95.8 39.0,95.6" fill="#ffaedb" stroke="#fff5db" stroke-width="1.5"/><polygon points="215.0,133.0 216.3,136.2 219.8,136.5 217.1,138.7 217.9,142.0 215.0,140.2 212.1,142.0 212.9,138.7 210.2,136.5 213.7,136.2" fill="#ffaedb" stroke="#fff5db" stroke-width="1.5"/><polygon points="128.0,20.0 129.0,22.6 131.8,22.8 129.7,24.5 130.4,27.2 128.0,25.8 125.6,27.2 126.3,24.5 124.2,22.8 127.0,22.6" fill="#ffaedb" stroke="#fff5db" stroke-width="1.5"/></g><path d="M45 8h166l37 37v166l-37 37H45L8 211V45Z" fill="none" stroke="#ffffffbb" stroke-width="2"/><path d="M26 21h38M20 28v34" fill="none" stroke="#ffffffb0" stroke-width="3" stroke-linecap="round"/></svg>