<svg xmlns="http://www.w3.org/2000/svg" width="256" height="256" viewBox="0 0 256 256">
<title>Иллюстрированный довод</title>
<rect x="15" y="15" width="226" height="226" rx="30" fill="#F2F4F8"/>
        <path d="M15 72h226v52H15Z" fill="#E6EAF1"/>
        <path d="M15 136h226v55H15Z" fill="#BAC1CD" opacity=".9"/>
        <path d="M35 26v204" stroke="#677286" stroke-width="4" opacity=".18"/>
<circle cx="35" cy="54" r="5" fill="#BAC1CD" opacity=".85"/><path d="M188 54h41" stroke="#677286" stroke-width="3" opacity=".34"/><path d="M35 185h57" stroke="#BAC1CD" stroke-width="4" opacity=".45"/>
<g transform="translate(26.88 26.88) scale(0.790) rotate(5 128 128)"
 fill="none" stroke="#697487" stroke-width="10" stroke-linecap="round" stroke-linejoin="round"><rect x="46" y="58" width="164" height="143" rx="13"/><circle cx="96" cy="106" r="16"/><path d="m61 178 48-49 32 32 24-24 31 41"/></g>
<rect x="185" y="185" width="34" height="34" rx="8" fill="none" stroke="#BAC1CD" stroke-width="5"/>
<path d="M29 229h38" stroke="#BBC2CD" stroke-width="7" stroke-linecap="round"/>
<path d="M75 229h99" stroke="#677286" stroke-width="3" opacity=".22" stroke-linecap="round"/>
</svg>