<svg xmlns="http://www.w3.org/2000/svg" width="512" height="512" viewBox="0 0 256 256"><title>Памятка не закон</title><defs><linearGradient id="sky" x2=".7" y2="1"><stop stop-color="#effff4"/><stop offset=".58" stop-color="#9ae6c6"/><stop offset="1" stop-color="#18977f"/></linearGradient><linearGradient id="gold" x2=".4" y2="1"><stop stop-color="#fff6d2"/><stop offset=".42" stop-color="#ffdc91"/><stop offset="1" stop-color="#e8b367"/></linearGradient><linearGradient id="rim" x2="1" y2="1"><stop stop-color="#fff9df"/><stop offset=".26" stop-color="#ffdc91"/><stop offset=".66" stop-color="#9ae6c6"/><stop offset="1" stop-color="#18977f"/></linearGradient><clipPath id="clip"><path d="M45 8h166l37 37v166l-37 37H45L8 211V45Z"/></clipPath></defs><path d="M45 8h166l37 37v166l-37 37H45L8 211V45Z" fill="url(#sky)" stroke="url(#rim)" stroke-width="9"/><g clip-path="url(#clip)"><path d="M12 175h232v61H12Z" fill="#ecd9c655" stroke="none" stroke-width="2.5" stroke-linecap="round" stroke-linejoin="round"/><path d="M12 176h232M30 208h56m78 0h62" fill="none" stroke="#e8d3bb80" stroke-width="3" stroke-linecap="round" stroke-linejoin="round"/><ellipse cx="126" cy="214" rx="90" ry="12" fill="#18977f" opacity=".15"/><g transform="translate(28 27) rotate(-7 81.0 81.0) scale(1.62)"><circle cx="50" cy="50" r="41" fill="#edbc69" stroke="#34476c" stroke-width="2"/><circle cx="50" cy="50" r="35" fill="none" stroke="#ffffff90" stroke-width="2"/><text x="50" y="72" text-anchor="middle" font-family="Arial,sans-serif" font-weight="800" font-size="60" fill="#fff">?</text></g><g transform="translate(163 57) rotate(-2 40.5 40.5) scale(0.81)"><path d="M16 7h50l18 18v69H16Z" fill="#fff9e9" stroke="#34476c" stroke-width="2.5" stroke-linecap="round" stroke-linejoin="round"/><path d="M66 7v18h18" fill="#c6ddf8" stroke="#34476c" stroke-width="2.5" stroke-linecap="round" stroke-linejoin="round"/><text x="47" y="42" text-anchor="middle" font-family="Arial,sans-serif" font-weight="800" font-size="12" fill="#34476c">НПА</text><path d="M27 54h44" fill="none" stroke="#9cb0ce" stroke-width="2" stroke-linecap="round" stroke-linejoin="round"/><path d="M27 63h44" fill="none" stroke="#9cb0ce" stroke-width="2" stroke-linecap="round" stroke-linejoin="round"/><path d="M27 72h44" fill="none" stroke="#9cb0ce" stroke-width="2" stroke-linecap="round" stroke-linejoin="round"/><path d="M27 81h29" fill="none" stroke="#9cb0ce" stroke-width="2" stroke-linecap="round" stroke-linejoin="round"/><circle cx="73" cy="80" r="11" fill="url(#gold)" stroke="#34476c" stroke-width="2"/><polygon points="73.0,75.0 74.3,78.2 77.8,78.5 75.1,80.7 75.9,84.0 73.0,82.2 70.1,84.0 70.9,80.7 68.2,78.5 71.7,78.2" fill="url(#gold)" stroke="#fff5db" stroke-width="1.5"/></g><g transform="translate(140 164) rotate(4 43.0 43.0) scale(0.86)"><circle cx="50" cy="50" r="41" fill="#d8a0e7" stroke="#34476c" stroke-width="2"/><circle cx="50" cy="50" r="35" fill="none" stroke="#ffffff90" stroke-width="2"/><text x="50" y="69" text-anchor="middle" font-family="Arial,sans-serif" font-weight="800" font-size="52" fill="#fff">%</text></g><polygon points="51.0,95.0 52.0,97.6 54.8,97.8 52.7,99.5 53.4,102.2 51.0,100.8 48.6,102.2 49.3,99.5 47.2,97.8 50.0,97.6" fill="#ffdc91" stroke="#fff5db" stroke-width="1.5"/><polygon points="218.0,114.0 219.3,117.2 222.8,117.5 220.1,119.7 220.9,123.0 218.0,121.2 215.1,123.0 215.9,119.7 213.2,117.5 216.7,117.2" fill="#ffdc91" stroke="#fff5db" stroke-width="1.5"/><polygon points="131.0,20.0 132.0,22.6 134.8,22.8 132.7,24.5 133.4,27.2 131.0,25.8 128.6,27.2 129.3,24.5 127.2,22.8 130.0,22.6" fill="#ffdc91" stroke="#fff5db" stroke-width="1.5"/></g><path d="M45 8h166l37 37v166l-37 37H45L8 211V45Z" fill="none" stroke="#ffffffbb" stroke-width="2"/><path d="M26 21h38M20 28v34" fill="none" stroke="#ffffffb0" stroke-width="3" stroke-linecap="round"/></svg>