<svg xmlns="http://www.w3.org/2000/svg" width="512" height="512" viewBox="0 0 256 256"><title>Обдуманное воздержание</title><defs><linearGradient id="sky" x2=".7" y2="1"><stop stop-color="#fff7ed"/><stop offset=".58" stop-color="#ffd1ad"/><stop offset="1" stop-color="#dc7d59"/></linearGradient><linearGradient id="gold" x2=".4" y2="1"><stop stop-color="#fff6d2"/><stop offset=".42" stop-color="#aae6db"/><stop offset="1" stop-color="#e8b367"/></linearGradient><linearGradient id="rim" x2="1" y2="1"><stop stop-color="#fff9df"/><stop offset=".26" stop-color="#aae6db"/><stop offset=".66" stop-color="#ffd1ad"/><stop offset="1" stop-color="#dc7d59"/></linearGradient><clipPath id="clip"><path d="M25 8h206q17 0 17 17v206q0 17-17 17H25q-17 0-17-17V25Q8 8 25 8Z"/></clipPath></defs><path d="M25 8h206q17 0 17 17v206q0 17-17 17H25q-17 0-17-17V25Q8 8 25 8Z" fill="url(#sky)" stroke="url(#rim)" stroke-width="9"/><g clip-path="url(#clip)"><circle cx="201" cy="49" r="25" fill="#fff1c5" stroke="none" stroke-width="2"/><path d="M186 32q-9 30 30 32" fill="#d6c4ed" stroke="none" stroke-width="2.5" stroke-linecap="round" stroke-linejoin="round"/><polygon points="37.0,48.0 38.0,50.6 40.8,50.8 38.7,52.5 39.4,55.2 37.0,53.8 34.6,55.2 35.3,52.5 33.2,50.8 36.0,50.6" fill="#fff" stroke="#fff5db" stroke-width="1.5"/><polygon points="76.0,24.0 77.0,26.6 79.8,26.8 77.7,28.5 78.4,31.2 76.0,29.8 73.6,31.2 74.3,28.5 72.2,26.8 75.0,26.6" fill="#fff" stroke="#fff5db" stroke-width="1.5"/><polygon points="155.0,29.0 156.0,31.6 158.8,31.8 156.7,33.5 157.4,36.2 155.0,34.8 152.6,36.2 153.3,33.5 151.2,31.8 154.0,31.6" fill="#fff" stroke="#fff5db" stroke-width="1.5"/><polygon points="226.0,106.0 227.0,108.6 229.8,108.8 227.7,110.5 228.4,113.2 226.0,111.8 223.6,113.2 224.3,110.5 222.2,108.8 225.0,108.6" fill="#fff" stroke="#fff5db" stroke-width="1.5"/><polygon points="26.0,110.0 27.0,112.6 29.8,112.8 27.7,114.5 28.4,117.2 26.0,115.8 23.6,117.2 24.3,114.5 22.2,112.8 25.0,112.6" fill="#fff" stroke="#fff5db" stroke-width="1.5"/><path d="M12 204 58 156l31 28 43-33 38 31 37-27 37 45v36H12Z" fill="#c5cbea" stroke="none" stroke-width="2.5" stroke-linecap="round" stroke-linejoin="round"/><ellipse cx="126" cy="214" rx="90" ry="12" fill="#dc7d59" opacity=".15"/><g transform="translate(55 39) rotate(11 77.5 77.5) scale(1.55)"><circle cx="50" cy="50" r="41" fill="#ad9ded" stroke="#34476c" stroke-width="2"/><circle cx="50" cy="50" r="35" fill="none" stroke="#ffffff90" stroke-width="2"/><rect x="31" y="25" width="13" height="49" rx="3" fill="#fff" stroke="none" stroke-width="2"/><rect x="58" y="25" width="13" height="49" rx="3" fill="#fff" stroke="none" stroke-width="2"/></g><g transform="translate(10 30) rotate(10 34.5 34.5) scale(0.69)"><rect x="10" y="49" width="81" height="41" rx="5" fill="#80a9e9" stroke="#34476c" stroke-width="2"/><path d="M10 49 25 35h50l16 14Z" fill="#bfdbff" stroke="#34476c" stroke-width="2.5" stroke-linecap="round" stroke-linejoin="round"/><path d="M29 45h44" fill="none" stroke="#34476c" stroke-width="4" stroke-linecap="round" stroke-linejoin="round"/><g transform="rotate(-12 50 28)"><rect x="30" y="3" width="39" height="47" rx="3" fill="#fff9e8" stroke="#34476c" stroke-width="2"/><path d="m38 27 8 9 16-22" fill="none" stroke="#55b394" stroke-width="5" stroke-linecap="round" stroke-linejoin="round"/></g><path d="M19 65h64" fill="none" stroke="#c8e7ff" stroke-width="2" stroke-linecap="round" stroke-linejoin="round"/></g><g transform="translate(23 151) rotate(-4 40.0 40.0) scale(0.8)"><circle cx="50" cy="51" r="40" fill="url(#gold)" stroke="#34476c" stroke-width="2"/><circle cx="50" cy="51" r="33" fill="#fffaf0" stroke="#34476c" stroke-width="2"/><path d="M50.0 26.0l0.0 -4.0" fill="none" stroke="#8fa1c4" stroke-width="2" stroke-linecap="round" stroke-linejoin="round"/><path d="M62.5 29.3l2.0 -3.5" fill="none" stroke="#8fa1c4" stroke-width="2" stroke-linecap="round" stroke-linejoin="round"/><path d="M71.7 38.5l3.5 -2.0" fill="none" stroke="#8fa1c4" stroke-width="2" stroke-linecap="round" stroke-linejoin="round"/><path d="M75.0 51.0l4.0 -0.0" fill="none" stroke="#8fa1c4" stroke-width="2" stroke-linecap="round" stroke-linejoin="round"/><path d="M71.7 63.5l3.5 2.0" fill="none" stroke="#8fa1c4" stroke-width="2" stroke-linecap="round" stroke-linejoin="round"/><path d="M62.5 72.7l2.0 3.5" fill="none" stroke="#8fa1c4" stroke-width="2" stroke-linecap="round" stroke-linejoin="round"/><path d="M50.0 76.0l0.0 4.0" fill="none" stroke="#8fa1c4" stroke-width="2" stroke-linecap="round" stroke-linejoin="round"/><path d="M37.5 72.7l-2.0 3.5" fill="none" stroke="#8fa1c4" stroke-width="2" stroke-linecap="round" stroke-linejoin="round"/><path d="M28.3 63.5l-3.5 2.0" fill="none" stroke="#8fa1c4" stroke-width="2" stroke-linecap="round" stroke-linejoin="round"/><path d="M25.0 51.0l-4.0 0.0" fill="none" stroke="#8fa1c4" stroke-width="2" stroke-linecap="round" stroke-linejoin="round"/><path d="M28.3 38.5l-3.5 -2.0" fill="none" stroke="#8fa1c4" stroke-width="2" stroke-linecap="round" stroke-linejoin="round"/><path d="M37.5 29.3l-2.0 -3.5" fill="none" stroke="#8fa1c4" stroke-width="2" stroke-linecap="round" stroke-linejoin="round"/><path d="M50 27v25l19 10" fill="none" stroke="#6488d1" stroke-width="4" stroke-linecap="round" stroke-linejoin="round"/><circle cx="50" cy="51" r="4" fill="#ef8eaa" stroke="none" stroke-width="2"/></g><polygon points="50.0,77.0 51.0,79.6 53.8,79.8 51.7,81.5 52.4,84.2 50.0,82.8 47.6,84.2 48.3,81.5 46.2,79.8 49.0,79.6" fill="#aae6db" stroke="#fff5db" stroke-width="1.5"/><polygon points="206.0,122.0 207.3,125.2 210.8,125.5 208.1,127.7 208.9,131.0 206.0,129.2 203.1,131.0 203.9,127.7 201.2,125.5 204.7,125.2" fill="#aae6db" stroke="#fff5db" stroke-width="1.5"/><polygon points="131.0,20.0 132.0,22.6 134.8,22.8 132.7,24.5 133.4,27.2 131.0,25.8 128.6,27.2 129.3,24.5 127.2,22.8 130.0,22.6" fill="#aae6db" stroke="#fff5db" stroke-width="1.5"/></g><path d="M25 8h206q17 0 17 17v206q0 17-17 17H25q-17 0-17-17V25Q8 8 25 8Z" fill="none" stroke="#ffffffbb" stroke-width="2"/><path d="M26 21h38M20 28v34" fill="none" stroke="#ffffffb0" stroke-width="3" stroke-linecap="round"/></svg>