<svg xmlns="http://www.w3.org/2000/svg" width="256" height="256" viewBox="0 0 256 256">
<title>Тихий архивариус</title>
<defs>
 <filter id="gold71" x="-45%" y="-45%" width="190%" height="190%"><feGaussianBlur stdDeviation="6" result="b"/><feColorMatrix in="b" type="matrix" values="1 0 0 0 .77  0 1 0 0 .48  0 0 1 0 .10  0 0 0 0 0"/></filter>
 <linearGradient id="steel71" x1="0" y1="0" x2="1" y2="1"><stop stop-color="#aeb4b8"/><stop offset=".18" stop-color="#343b40"/><stop offset=".56" stop-color="#777f84"/><stop offset="1" stop-color="#20262a"/></linearGradient>
 <radialGradient id="v71"><stop stop-color="#171b1e"/><stop offset=".68" stop-color="#090b0d"/><stop offset="1" stop-color="#040506"/></radialGradient>
</defs>
<rect x="8" y="8" width="240" height="240" rx="5" fill="none" stroke="#30363b" stroke-width="6" filter="url(#gold71)" opacity="0"/>
<rect x="7" y="7" width="242" height="242" rx="5" fill="#07090a" stroke="#30363b" stroke-width="5"/>
<rect x="13" y="13" width="230" height="230" rx="3" fill="url(#v71)" stroke="url(#steel71)" stroke-width="4"/>
<rect x="18" y="18" width="220" height="220" rx="2" fill="none" stroke="#485057" stroke-width="2" opacity=".75"/>
<path d="M19 19h70L19 89Z" fill="#ffffff" opacity=".025"/>
<path d="M21 187 187 21h48L69 235H21Z" fill="#373b3e" opacity=".74"/>
<circle cx="190" cy="143" r="3" fill="#454b50" opacity=".24"/><circle cx="47" cy="174" r="1" fill="#454b50" opacity=".24"/><circle cx="94" cy="205" r="2" fill="#454b50" opacity=".24"/><circle cx="141" cy="52" r="3" fill="#454b50" opacity=".24"/><circle cx="188" cy="83" r="1" fill="#454b50" opacity=".24"/>
<g transform="translate(5.76 5.76) scale(0.955) rotate(-3 128 128)" fill="none" stroke="#777d82" stroke-width="9" stroke-linecap="round" stroke-linejoin="round" opacity=".74"><path d="M62 84h132v101H62Z"/><path d="M72 64h112v20M86 109h84M99 133h58"/><path d="M108 185v13h40v-13"/></g>
<path d="M26 219h72" stroke="#454a4e" stroke-width="5" opacity=".8"/>
<path d="M26 229h146" stroke="#777d82" stroke-width="2" opacity=".28"/>
</svg>