<svg xmlns="http://www.w3.org/2000/svg" width="256" height="256" viewBox="0 0 256 256">
<title>Микрофон и паспорт программы</title>
<defs>
 <filter id="gold72" x="-45%" y="-45%" width="190%" height="190%"><feGaussianBlur stdDeviation="6" result="b"/><feColorMatrix in="b" type="matrix" values="1 0 0 0 .77  0 1 0 0 .48  0 0 1 0 .10  0 0 0 .65 0"/></filter>
 <linearGradient id="steel72" x1="0" y1="0" x2="1" y2="1"><stop stop-color="#aeb4b8"/><stop offset=".18" stop-color="#343b40"/><stop offset=".56" stop-color="#777f84"/><stop offset="1" stop-color="#20262a"/></linearGradient>
 <radialGradient id="v72"><stop stop-color="#171b1e"/><stop offset=".68" stop-color="#090b0d"/><stop offset="1" stop-color="#040506"/></radialGradient>
</defs>
<rect x="8" y="8" width="240" height="240" rx="5" fill="none" stroke="#d0a64f" stroke-width="6" filter="url(#gold72)" opacity=".88"/>
<rect x="7" y="7" width="242" height="242" rx="5" fill="#07090a" stroke="#d0a64f" stroke-width="5"/>
<rect x="13" y="13" width="230" height="230" rx="3" fill="url(#v72)" stroke="url(#steel72)" stroke-width="4"/>
<rect x="18" y="18" width="220" height="220" rx="2" fill="none" stroke="#727a80" stroke-width="2" opacity=".75"/>
<path d="M19 19h70L19 89Z" fill="#ffffff" opacity=".06"/>
<path d="m128 21 41 54 67 19-43 51 5 69-70-26-70 26 5-69-43-51 67-19Z" fill="#6f1820" opacity=".7"/>
<circle cx="219" cy="186" r="1" fill="#d8dde0" opacity=".24"/><circle cx="76" cy="217" r="2" fill="#d8dde0" opacity=".24"/><circle cx="123" cy="64" r="3" fill="#d8dde0" opacity=".24"/><circle cx="170" cy="95" r="1" fill="#d8dde0" opacity=".24"/><circle cx="217" cy="126" r="2" fill="#d8dde0" opacity=".24"/><path d="M34 180h54" stroke="#a3242e" stroke-width="3" opacity=".55"/><path d="M169 39h39v39" fill="none" stroke="#d8dde0" stroke-width="3" opacity=".35"/>
<g transform="translate(15.36 15.36) scale(0.880) rotate(0 128 128)" fill="none" stroke="#e7e8e8" stroke-width="9" stroke-linecap="round" stroke-linejoin="round" opacity=".98"><path d="M66 113h35l39-31v93l-39-31H66Z"/><path d="M158 104q24 25 0 50M176 90q40 40 0 79"/></g>
<path d="M26 219h90" stroke="#a4252f" stroke-width="5" opacity=".8"/>
<path d="M26 229h34" stroke="#e7e8e8" stroke-width="2" opacity=".28"/>
</svg>